# xmcd
#
# Track frame offsets:
#	150
#	11533
#	23892
#	36954
#	48641
#	60808
#	69791
#	80645
#	93931
#	105218
#	115641
#	124863
#	137749
#	150380
#	162130
#	180104
#	191934
#	204853
#	220460
#	231906
#	242729
#	251679
#	262582
#	273340
#	284610
#	294888
#	308254
#	318517
#	328443
#	339250
#	350424
#
# Disc length: 4828 seconds
#
# Revision: 4241358432
# Processed by: cddbd v1.5.2PL0 Copyright (c) Steve Scherf et al.
# Submitted via: EZCDAudioConverter 8.3.2.1
#
DISCID=a612da1f
DTITLE=CONNIE SMITH - BORN TO SING, [CD2]
DYEAR=2001
DGENRE=Country
TTITLE0=NOBODY BUT A FOOL (WOULD LOVE YOU)
TTITLE1=I'LL NOVER GET OVER LOVING YOU
TTITLE2=GO AHEAD AND MAKE ME CRY
TTITLE3=IN MY BABY'S ARMS AGAIN
TTITLE4=FOR BETTER OR FOR WORSE
TTITLE5=AIN'T NOTHIN' SHAKIN' (BUT THE LEAVES)
TTITLE6=WHERE COULD I GO BUT TO THE LORD
TTITLE7=FARTHER ALONG
TTITLE8=WHEN GOD DIPS HIS LOVE IN MY HEART
TTITLE9=HE SET ME FREE
TTITLE10=WINGS OF A DOVE
TTITLE11=I SAW A MAN
TTITLE12=JUST A CLOSER WALK WITH THEE
TTITLE13=PO' FOLKS
TTITLE14=FOUR WALLS
TTITLE15=CRY, CRY, CRY
TTITLE16=IN THE GARDEN
TTITLE17=THE WAYFARIN' PILGRIM
TTITLE18=KEEP ON HOLDING TO THESE NAIL SCARRED HANDS
TTITLE19=SATISFIED
TTITLE20=I WOULDN'T TAKE NOTHIN' FOR MY JOURNEY
TTITLE21=FIVE FINGERS TO SPARE
TTITLE22=AIN'T HAD NO LOVIN'
TTITLE23=YOU AND ONLY YOU
TTITLE24=STRANGE
TTITLE25=GO AWAY STRANGER
TTITLE26=A TOUCH OF YESTERDAY
TTITLE27=BORN TO SING
TTITLE28=INVISIBLE TEARS
TTITLE29=PAPER ROSES
TTITLE30=I DON'T KNOW WHY I KEEP LOVING YOU
EXTD=
EXTT0=
EXTT1=
EXTT2=
EXTT3=
EXTT4=
EXTT5=
EXTT6=
EXTT7=
EXTT8=
EXTT9=
EXTT10=
EXTT11=
EXTT12=
EXTT13=
EXTT14=
EXTT15=
EXTT16=
EXTT17=
EXTT18=
EXTT19=
EXTT20=
EXTT21=
EXTT22=
EXTT23=
EXTT24=
EXTT25=
EXTT26=
EXTT27=
EXTT28=
EXTT29=
EXTT30=
PLAYORDER=
